<svg width="798" height="158" viewBox="0 0 798 158" fill="none" xmlns="http://www.w3.org/2000/svg">
    <rect width="798" height="158" fill="white"/>
    <rect width="798" height="30" fill="#424F31"/>
    <rect y="10" width="798" height="10" fill="#E74724"/>
    <rect y="128" width="798" height="30" fill="#424F31"/>
    <rect y="138" width="798" height="10" fill="#E74724"/>
    <path d="M184.546 44L178.813 59.3879H178.612L172.98 44L164.029 49.1293L174.69 61.8017L174.589 62.0029L159 58.8851V69.0431L174.79 66.1264V66.3276L164.029 78.8994L172.678 84.1293L178.511 68.6408L178.713 68.5402L184.445 84.1293L193.397 78.8994L182.434 66.5287L182.534 66.227L198.626 69.0431V58.8851L182.635 62.1035L182.534 61.8017L193.397 49.0287L184.546 44Z" fill="black"/>
    <path d="M208.292 112.592C212.114 113.095 217.746 113.598 225.691 113.598C238.967 113.598 249.829 110.782 256.97 104.848C263.507 99.3161 268.234 90.3649 268.234 77.3908C268.234 65.4224 263.809 57.0747 256.769 51.8448C250.231 46.9167 241.884 44.6035 229.01 44.6035C221.266 44.6035 213.924 45.1063 208.292 46.0115V112.592ZM223.68 56.9741C224.987 56.6724 227.2 56.3707 230.619 56.3707C243.795 56.3707 252.042 63.8132 251.941 77.8937C251.941 94.0862 242.89 101.73 229.01 101.629C227.099 101.629 224.987 101.629 223.68 101.328V56.9741Z" fill="black"/>
    <path d="M278.22 45.1063V82.9224C278.22 104.546 288.278 114 305.375 114C323.077 114 333.637 104.043 333.637 83.1236V45.1063H318.35V84.1293C318.35 96.0977 313.924 101.73 305.878 101.73C298.034 101.73 293.608 95.796 293.608 84.1293V45.1063H278.22Z" fill="black"/>
    <path d="M394.348 99.0144C391.331 100.221 386.201 101.227 381.575 101.227C367.897 101.227 359.851 92.6782 359.851 79.1006C359.851 64.0144 369.305 56.6724 381.474 56.6724C386.905 56.6724 391.23 57.8793 394.348 59.1868L397.466 47.0172C394.75 45.6092 388.716 44 380.77 44C360.253 44 343.759 56.8736 343.759 80.0058C343.759 99.3161 355.828 113.899 379.262 113.899C387.509 113.899 393.845 112.391 396.661 110.983L394.348 99.0144Z" fill="black"/>
    <path d="M406.691 112.894H421.878V90.7672L427.711 83.6264L444.306 112.894H462.208L438.573 73.9713L461.001 45.1063H442.194L426.806 67.6351C425.297 70.0489 423.688 72.4626 422.18 75.0776H421.878V45.1063H406.691V112.894Z" fill="black"/>
    <path d="M486.186 109.776C490.008 111.888 497.652 113.899 505.396 113.899C524.002 113.899 532.752 104.244 532.752 92.8793C532.752 83.3247 527.12 77.0891 515.152 72.6638C506.402 69.3448 502.58 67.4339 502.58 63.1092C502.58 59.5891 505.798 56.5718 512.436 56.5718C519.074 56.5718 523.902 58.4828 526.617 59.7902L530.037 47.4195C526.014 45.6092 520.381 44 512.738 44C496.746 44 487.091 52.8506 487.091 64.4167C487.091 74.273 494.433 80.5086 505.698 84.431C513.844 87.3477 517.062 89.7615 517.062 93.9856C517.062 98.4109 513.341 101.328 506.301 101.328C499.764 101.328 493.427 99.2155 489.304 97.1035L486.186 109.776Z" fill="black"/>
    <path d="M556.19 112.894H571.578V57.9799H590.084V45.1063H537.986V57.9799H556.19V112.894Z" fill="black"/>
    <path d="M625.139 44C605.125 44 592.151 59.1868 592.151 79.5029C592.151 98.8132 603.918 114 624.033 114C643.846 114 657.323 100.523 657.323 78.296C657.323 59.5891 645.958 44 625.139 44ZM624.737 56.1695C635.297 56.1695 641.131 66.6293 641.131 78.7989C641.131 91.9741 635.197 101.83 624.838 101.83C614.579 101.83 608.343 92.477 608.343 79.2012C608.343 66.0259 614.378 56.1695 624.737 56.1695Z" fill="black"/>
    <path d="M667.36 112.894H682.547V86.2414H687.174C693.409 86.342 696.326 88.6552 698.136 97.1035C700.148 105.451 701.757 110.983 702.863 112.894H718.553C717.245 110.279 715.133 101.428 713.021 93.7845C711.312 87.5489 708.697 83.023 703.97 81.1121V80.8103C709.803 78.6983 715.938 72.7644 715.938 64.1149C715.938 57.8793 713.725 53.1523 709.702 49.9339C704.875 46.1121 697.835 44.6035 687.777 44.6035C679.63 44.6035 672.289 45.2069 667.36 46.0115V112.894ZM682.547 56.4713C683.654 56.2701 685.766 55.9684 689.487 55.9684C696.527 56.069 700.751 59.1868 700.751 65.4224C700.751 71.3563 696.225 75.1782 688.582 75.1782H682.547V56.4713Z" fill="black"/>
    <path d="M756.089 112.894V84.6322L778.417 45.1063H761.219L754.38 61.3994C752.368 66.227 750.759 70.1494 749.25 74.3736H749.049C747.339 69.9483 745.931 66.3276 743.819 61.3994L736.879 45.1063H719.38L740.802 85.1351V112.894H756.089Z" fill="black"/>
    <path d="M20.9229 67.2624C22.219 67.4329 24.1291 67.6035 26.8237 67.6035C31.3261 67.6035 35.0099 66.6484 37.4316 64.636C39.6487 62.76 41.2519 59.7243 41.2519 55.3242C41.2519 51.2652 39.7511 48.4342 37.3634 46.6605C35.1463 44.9892 32.3153 44.2047 27.9493 44.2047C25.3229 44.2047 22.833 44.3752 20.9229 44.6822V67.2624ZM26.1415 48.4001C26.585 48.2977 27.3354 48.1954 28.4951 48.1954C32.9634 48.1954 35.7603 50.7195 35.7262 55.4948C35.7262 60.9863 32.6564 63.5786 27.9493 63.5445C27.3012 63.5445 26.585 63.5445 26.1415 63.4422V48.4001Z" fill="black"/>
    <path d="M54.803 44C48.0153 44 43.6152 49.1505 43.6152 56.0405C43.6152 62.5895 47.606 67.7399 54.4278 67.7399C61.1473 67.7399 65.7179 63.1693 65.7179 55.6312C65.7179 49.2869 61.8636 44 54.803 44ZM54.6666 48.1272C58.248 48.1272 60.2264 51.6745 60.2264 55.8017C60.2264 60.27 58.2139 63.6127 54.7007 63.6127C51.2216 63.6127 49.1068 60.4406 49.1068 55.9382C49.1068 51.4699 51.1534 48.1272 54.6666 48.1272Z" fill="black"/>
    <path d="M73.8972 67.3647V60.4406C73.8972 56.6886 73.829 53.4482 73.6925 50.4125L73.7949 50.3784C74.9205 53.073 76.4213 56.0405 77.7856 58.4964L82.6973 67.3647H88.1548V44.3752H83.3795V51.0947C83.3795 54.5397 83.4818 57.6436 83.8229 60.6793H83.7206C82.6973 58.0871 81.333 55.2219 79.9686 52.8001L75.1933 44.3752H69.1219V67.3647H73.8972Z" fill="black"/>
    <path d="M93.661 44.307C93.2176 47.3086 92.3307 50.6172 91.3075 53.5164L94.4455 53.2436C95.9804 50.6854 97.4812 47.3427 98.5386 44L93.661 44.307Z" fill="black"/>
    <path d="M106.533 67.3647H111.751V48.7412H118.027V44.3752H100.359V48.7412H106.533V67.3647Z" fill="black"/>
    <path d="M20.0361 112.027C21.4619 112.815 24.3134 113.565 27.2025 113.565C34.1436 113.565 37.4079 109.964 37.4079 105.724C37.4079 102.159 35.3068 99.8332 30.8419 98.1823C27.5777 96.9441 26.1519 96.2312 26.1519 94.6179C26.1519 93.3047 27.3525 92.1791 29.8289 92.1791C32.3052 92.1791 34.1061 92.892 35.1192 93.3797L36.3948 88.7648C34.894 88.0894 32.7929 87.4891 29.9414 87.4891C23.9757 87.4891 20.3738 90.7908 20.3738 95.1056C20.3738 98.7826 23.1128 101.109 27.315 102.572C30.3541 103.66 31.5548 104.561 31.5548 106.137C31.5548 107.787 30.1665 108.875 27.5401 108.875C25.1013 108.875 22.7376 108.088 21.1993 107.3L20.0361 112.027Z" fill="black"/>
    <path d="M63.0355 113.19H68.626L67.2377 87.9018H59.7713L57.0698 96.3063C56.2444 99.1203 55.3814 102.46 54.6685 105.386H54.556C53.9932 102.422 53.2053 99.2704 52.4173 96.3438L49.941 87.9018H42.3245L40.7111 113.19H46.0014L46.4517 103.585C46.6393 100.433 46.7518 96.5314 46.9019 93.1171H46.9769C47.5773 96.4188 48.4402 100.021 49.2657 102.985L51.9671 112.778H56.432L59.5086 102.91C60.4841 99.9457 61.5347 96.3438 62.3226 93.1171H62.4352C62.4352 96.794 62.5477 100.471 62.6603 103.51L63.0355 113.19Z" fill="black"/>
    <path d="M73.0047 87.9018V113.19H78.7452V87.9018H73.0047Z" fill="black"/>
    <path d="M83.7037 113.19H99.4997V108.388H89.4443V87.9018H83.7037V113.19Z" fill="black"/>
    <path d="M117.912 97.8446H108.607V92.5918H118.475V87.9018H102.867V113.19H119V108.5H108.607V102.497H117.912V97.8446Z" fill="black"/>
    <path d="M20 84.4192H23.079V78.9655H27.9491V76.4701H23.079V73.3709H28.2912V70.8554H20V84.4192Z" fill="black"/>
    <path d="M36.5894 70.634C32.5846 70.634 29.9886 73.6728 29.9886 77.7379C29.9886 81.6018 32.3431 84.6406 36.368 84.6406C40.3325 84.6406 43.0292 81.9439 43.0292 77.4964C43.0292 73.7533 40.7551 70.634 36.5894 70.634ZM36.5089 73.0691C38.6219 73.0691 39.7892 75.162 39.7892 77.5971C39.7892 80.2334 38.6018 82.2055 36.529 82.2055C34.4763 82.2055 33.2286 80.334 33.2286 77.6776C33.2286 75.0413 34.4361 73.0691 36.5089 73.0691Z" fill="black"/>
    <path d="M45.0375 84.4192H48.0763V79.0863H49.002C50.2497 79.1064 50.8333 79.5692 51.1956 81.2597C51.5981 82.93 51.9201 84.0369 52.1414 84.4192H55.2808C55.0192 83.896 54.5966 82.125 54.174 80.5956C53.8319 79.3479 53.3086 78.4423 52.3628 78.0599V77.9995C53.53 77.5769 54.7576 76.3896 54.7576 74.6589C54.7576 73.4112 54.3149 72.4654 53.5099 71.8214C52.5439 71.0566 51.1352 70.7548 49.1228 70.7548C47.4927 70.7548 46.0236 70.8755 45.0375 71.0365V84.4192ZM48.0763 73.1295C48.2977 73.0892 48.7203 73.0288 49.4649 73.0288C50.8736 73.049 51.7188 73.6728 51.7188 74.9205C51.7188 76.1079 50.8132 76.8726 49.2838 76.8726H48.0763V73.1295Z" fill="black"/>
    <path d="M68.2181 76.6512H63.1669V79.046H65.2598V81.8835C65.0183 82.0043 64.4549 82.0848 63.7505 82.0848C61.235 82.0848 59.4841 80.4346 59.4841 77.6373C59.4841 74.6992 61.4161 73.2502 63.9719 73.2502C65.4611 73.2502 66.3868 73.5118 67.1314 73.8338L67.7754 71.3786C67.1113 71.0566 65.7629 70.7145 64.0121 70.7145C59.5646 70.7145 56.2844 73.2904 56.2643 77.7983C56.2441 79.7906 56.9284 81.5616 58.1761 82.7288C59.4238 83.9362 61.2148 84.5601 63.6901 84.5601C65.4812 84.5601 67.2723 84.1174 68.2181 83.7954V76.6512Z" fill="black"/>
    <path d="M78.6755 76.1884H73.6847V73.3709H78.9774V70.8554H70.6057V84.4192H79.2592V81.9037H73.6847V78.6838H78.6755V76.1884Z" fill="black"/>
    <path d="M84.0701 84.4192H87.1492V73.4313H90.8521V70.8554H80.4276V73.4313H84.0701V84.4192Z" fill="black"/>
    <path d="M98.3773 84.4192H101.456V73.4313H105.159V70.8554H94.7348V73.4313H98.3773V84.4192Z" fill="black"/>
    <path d="M112.174 70.634C108.169 70.634 105.573 73.6728 105.573 77.7379C105.573 81.6018 107.927 84.6406 111.952 84.6406C115.917 84.6406 118.613 81.9439 118.613 77.4964C118.613 73.7533 116.339 70.634 112.174 70.634ZM112.093 73.0691C114.206 73.0691 115.373 75.162 115.373 77.5971C115.373 80.2334 114.186 82.2055 112.113 82.2055C110.061 82.2055 108.813 80.334 108.813 77.6776C108.813 75.0413 110.02 73.0691 112.093 73.0691Z" fill="black"/>
</svg>